<svg xmlns="http://www.w3.org/2000/svg" viewBox="0 0 500 500"><g id="freepik--Shadow--inject-8"><ellipse id="freepik--path--inject-8" cx="250" cy="416.24" rx="193.89" ry="11.32" style="fill:#f5f5f5"></ellipse></g><g id="freepik--Smartphone--inject-8"><path d="M398.05,416.24H281.25a11.72,11.72,0,0,1-11.81-12.64l16.3-247.07a13.74,13.74,0,0,1,13.47-12.64H416a11.72,11.72,0,0,1,11.8,12.64L411.52,403.6A13.74,13.74,0,0,1,398.05,416.24Z" style="fill:#263238"></path><path d="M422.64,210.33H408.5a2.83,2.83,0,0,1-2.85-3.05l1.41-21.4a3.32,3.32,0,0,1,3.26-3h14.13a2.83,2.83,0,0,1,2.85,3l-1.41,21.4A3.31,3.31,0,0,1,422.64,210.33Z" style="fill:#263238"></path><rect x="324.61" y="140.39" width="5.17" height="1" style="fill:#407BFF"></rect><rect x="299.44" y="140.39" width="18.8" height="1" style="fill:#407BFF"></rect><path d="M396.27,416.24H279.47a11.73,11.73,0,0,1-11.81-12.64L284,156.53a13.74,13.74,0,0,1,13.47-12.64h116.8A11.72,11.72,0,0,1,426,156.53L409.74,403.6A13.74,13.74,0,0,1,396.27,416.24Z" style="fill:#407BFF"></path><path d="M401.57,387.46H278a6.66,6.66,0,0,1-6.71-7.18l14.19-215.1A7.8,7.8,0,0,1,293.1,158H416.7a6.66,6.66,0,0,1,6.71,7.18l-14.19,215.1A7.8,7.8,0,0,1,401.57,387.46Z" style="fill:#fff"></path><polygon points="378.52 158 353.98 158 294.53 387.46 319.07 387.46 378.52 158" style="fill:#fafafa"></polygon><polygon points="400.14 158 387.87 158 328.42 387.46 340.69 387.46 400.14 158" style="fill:#fafafa"></polygon><path d="M383.84,316.36,357.16,215.45a10.49,10.49,0,0,0-12.8-7.45l-63.12,16.68-8.42,131.86,103.57-27.37A10.51,10.51,0,0,0,383.84,316.36Z" style="fill:#f0f0f0"></path><ellipse cx="339" cy="399.08" rx="8.08" ry="7.56" transform="translate(-182.13 347.98) rotate(-44.05)" style="fill:#fff;opacity:0.2"></ellipse><path d="M358.63,150.54a3.51,3.51,0,0,1-3.45,3.23,3,3,0,0,1-3-3.23,3.5,3.5,0,0,1,3.45-3.23A3,3,0,0,1,358.63,150.54Z" style="fill:#fff;opacity:0.2"></path><path d="M357.17,150.54a1.92,1.92,0,0,1-1.89,1.78,1.64,1.64,0,0,1-1.66-1.78,1.92,1.92,0,0,1,1.89-1.78A1.64,1.64,0,0,1,357.17,150.54Z" style="fill:#fff;opacity:0.2"></path></g></svg>